# xmcd
#
# Track frame offsets:
#	150
#	19695
#	37838
#	54483
#	95516
#	112625
#	126460
#	150877
#	178313
#	193138
#	215327
#
# Disc length: 3254 seconds
#
# Revision: 1
# Processed by: cddbd v1.5.2PL0 Copyright (c) Steve Scherf et al.
# Submitted via: audiograbber 1.83.01
#
DISCID=890cb40b
DTITLE=Blues'n'bits - Bluesmen
DYEAR=2013
DGENRE=Blues
TTITLE0=Me and The Blues
TTITLE1=Taxation Blues
TTITLE2=Tomorrow (A Lost Soul Lament)
TTITLE3=Another Deja Vu
TTITLE4=That Drowning Feeling
TTITLE5=Speedy Girls
TTITLE6=Bluesmen
TTITLE7=Daddy's Girl
TTITLE8=Hey I'm Waiting
TTITLE9=Not The Been Too
TTITLE10=Horse To The Water
EXTD=
EXTT0=
EXTT1=
EXTT2=
EXTT3=
EXTT4=
EXTT5=
EXTT6=
EXTT7=
EXTT8=
EXTT9=
EXTT10=
PLAYORDER=
